HIERARCHY
ROOT Hips
{
    OFFSET 0.000000 0.000000 0.000000
    CHANNELS 6 Xposition Yposition Zposition Zrotation Xrotation Yrotation
    JOINT Spine
    {
        OFFSET -0.000000 7.305679 0.000000
        CHANNELS 3 Zrotation Xrotation Yrotation
        JOINT Spine1
        {
            OFFSET -0.000000 20.356625 0.000000
            CHANNELS 3 Zrotation Xrotation Yrotation
            JOINT Neck
            {
                OFFSET -0.000000 22.138498 0.000000
                CHANNELS 3 Zrotation Xrotation Yrotation
                JOINT Head
                {
                    OFFSET -0.000000 13.809516 1.781873
                    CHANNELS 3 Zrotation Xrotation Yrotation
                    End Site
                    {
                        OFFSET -0.000000 17.818729 0.000000
                    }
                }
            }
            JOINT LeftShoulder
            {
                OFFSET 3.599131 17.989975 0.023592
                CHANNELS 3 Zrotation Xrotation Yrotation
                JOINT LeftArm
                {
                    OFFSET 12.560995 0.000000 0.000000
                    CHANNELS 3 Zrotation Xrotation Yrotation
                    JOINT LeftForeArm
                    {
                        OFFSET 22.903347 0.000000 0.000000
                        CHANNELS 3 Zrotation Xrotation Yrotation
                        JOINT LeftHand
                        {
                            OFFSET 21.865294 0.000000 0.000000
                            CHANNELS 3 Zrotation Xrotation Yrotation
                            JOINT LeftHandThumb1
                            {
                                OFFSET 1.853706 -2.106484 2.949078
                                CHANNELS 3 Zrotation Xrotation Yrotation
                                JOINT LeftHandThumb2
                                {
                                    OFFSET 2.049154 0.000000 1.336405
                                    CHANNELS 3 Zrotation Xrotation Yrotation
                                    JOINT LeftHandThumb3
                                    {
                                        OFFSET 2.672809 0.000000 0.000000
                                        CHANNELS 3 Zrotation Xrotation Yrotation
                                        End Site
                                        {
                                            OFFSET 2.381303 0.000000 0.000000
                                        }
                                    }
                                }
                            }
                            JOINT LeftHandIndex1
                            {
                                OFFSET 7.583345 0.000000 2.949078
                                CHANNELS 3 Zrotation Xrotation Yrotation
                                JOINT LeftHandIndex2
                                {
                                    OFFSET 4.454682 0.000000 0.000000
                                    CHANNELS 3 Zrotation Xrotation Yrotation
                                    JOINT LeftHandIndex3
                                    {
                                        OFFSET 2.227341 0.000000 0.000000
                                        CHANNELS 3 Zrotation Xrotation Yrotation
                                        End Site
                                        {
                                            OFFSET 1.984419 0.000000 0.000000
                                        }
                                    }
                                }
                            }
                            JOINT LeftHandMiddle1
                            {
                                OFFSET 7.583345 0.000000 0.977409
                                CHANNELS 3 Zrotation Xrotation Yrotation
                                JOINT LeftHandMiddle2
                                {
                                    OFFSET 4.900151 0.000000 0.000000
                                    CHANNELS 3 Zrotation Xrotation Yrotation
                                    JOINT LeftHandMiddle3
                                    {
                                        OFFSET 2.672809 0.000000 0.000000
                                        CHANNELS 3 Zrotation Xrotation Yrotation
                                        End Site
                                        {
                                            OFFSET 2.381303 0.000000 0.000000
                                        }
                                    }
                                }
                            }
                            JOINT LeftHandRing1
                            {
                                OFFSET 7.162047 0.000000 -0.977409
                                CHANNELS 3 Zrotation Xrotation Yrotation
                                JOINT LeftHandRing2
                                {
                                    OFFSET 4.454682 0.000000 0.000000
                                    CHANNELS 3 Zrotation Xrotation Yrotation
                                    JOINT LeftHandRing3
                                    {
                                        OFFSET 2.227341 0.000000 0.000000
                                        CHANNELS 3 Zrotation Xrotation Yrotation
                                        End Site
                                        {
                                            OFFSET 1.984419 0.000000 0.000000
                                        }
                                    }
                                }
                            }
                            JOINT LeftHandPinky1
                            {
                                OFFSET 6.740750 0.000000 -2.949078
                                CHANNELS 3 Zrotation Xrotation Yrotation
                                JOINT LeftHandPinky2
                                {
                                    OFFSET 3.563746 0.000000 0.000000
                                    CHANNELS 3 Zrotation Xrotation Yrotation
                                    JOINT LeftHandPinky3
                                    {
                                        OFFSET 1.781873 0.000000 0.000000
                                        CHANNELS 3 Zrotation Xrotation Yrotation
                                        End Site
                                        {
                                            OFFSET 1.587536 0.000000 0.000000
                                        }
                                    }
                                }
                            }
                        }
                    }
                }
            }
            JOINT RightShoulder
            {
                OFFSET -3.506995 17.989975 0.023592
                CHANNELS 3 Zrotation Xrotation Yrotation
                JOINT RightArm
                {
                    OFFSET -12.560995 0.000000 0.000000
                    CHANNELS 3 Zrotation Xrotation Yrotation
                    JOINT RightForeArm
                    {
                        OFFSET -22.903347 0.000000 0.000000
                        CHANNELS 3 Zrotation Xrotation Yrotation
                        JOINT RightHand
                        {
                            OFFSET -21.865294 0.000000 0.000000
                            CHANNELS 3 Zrotation Xrotation Yrotation
                            JOINT RightHandThumb1
                            {
                                OFFSET -1.853706 -2.106484 2.949078
                                CHANNELS 3 Zrotation Xrotation Yrotation
                                JOINT RightHandThumb2
                                {
                                    OFFSET -2.049154 0.000000 1.336405
                                    CHANNELS 3 Zrotation Xrotation Yrotation
                                    JOINT RightHandThumb3
                                    {
                                        OFFSET -2.672809 0.000000 0.000000
                                        CHANNELS 3 Zrotation Xrotation Yrotation
                                        End Site
                                        {
                                            OFFSET -2.381303 0.000000 0.000000
                                        }
                                    }
                                }
                            }
                            JOINT RightHandIndex1
                            {
                                OFFSET -7.583345 0.000000 2.949078
                                CHANNELS 3 Zrotation Xrotation Yrotation
                                JOINT RightHandIndex2
                                {
                                    OFFSET -4.454682 0.000000 0.000000
                                    CHANNELS 3 Zrotation Xrotation Yrotation
                                    JOINT RightHandIndex3
                                    {
                                        OFFSET -2.227341 0.000000 0.000000
                                        CHANNELS 3 Zrotation Xrotation Yrotation
                                        End Site
                                        {
                                            OFFSET -1.984419 0.000000 0.000000
                                        }
                                    }
                                }
                            }
                            JOINT RightHandMiddle1
                            {
                                OFFSET -7.583345 0.000000 0.977409
                                CHANNELS 3 Zrotation Xrotation Yrotation
                                JOINT RightHandMiddle2
                                {
                                    OFFSET -4.900151 0.000000 0.000000
                                    CHANNELS 3 Zrotation Xrotation Yrotation
                                    JOINT RightHandMiddle3
                                    {
                                        OFFSET -2.672809 0.000000 0.000000
                                        CHANNELS 3 Zrotation Xrotation Yrotation
                                        End Site
                                        {
                                            OFFSET -2.381303 0.000000 0.000000
                                        }
                                    }
                                }
                            }
                            JOINT RightHandRing1
                            {
                                OFFSET -7.162047 0.000000 -0.977409
                                CHANNELS 3 Zrotation Xrotation Yrotation
                                JOINT RightHandRing2
                                {
                                    OFFSET -4.454682 0.000000 0.000000
                                    CHANNELS 3 Zrotation Xrotation Yrotation
                                    JOINT RightHandRing3
                                    {
                                        OFFSET -2.227341 0.000000 0.000000
                                        CHANNELS 3 Zrotation Xrotation Yrotation
                                        End Site
                                        {
                                            OFFSET -1.984419 0.000000 0.000000
                                        }
                                    }
                                }
                            }
                            JOINT RightHandPinky1
                            {
                                OFFSET -6.740750 0.000000 -2.949078
                                CHANNELS 3 Zrotation Xrotation Yrotation
                                JOINT RightHandPinky2
                                {
                                    OFFSET -3.563746 0.000000 0.000000
                                    CHANNELS 3 Zrotation Xrotation Yrotation
                                    JOINT RightHandPinky3
                                    {
                                        OFFSET -1.781873 0.000000 0.000000
                                        CHANNELS 3 Zrotation Xrotation Yrotation
                                        End Site
                                        {
                                            OFFSET -1.587536 0.000000 0.000000
                                        }
                                    }
                                }
                            }
                        }
                    }
                }
            }
        }
    }
    JOINT LeftUpLeg
    {
        OFFSET 8.909365 0.000000 0.000000
        CHANNELS 3 Zrotation Xrotation Yrotation
        JOINT LeftLeg
        {
            OFFSET -0.000000 -38.765560 0.000000
            CHANNELS 3 Zrotation Xrotation Yrotation
            JOINT LeftFoot
            {
                OFFSET -0.000000 -35.244961 0.000000
                CHANNELS 3 Zrotation Xrotation Yrotation
                JOINT LeftToeBase
                {
                    OFFSET -0.000000 -5.791087 13.364048
                    CHANNELS 3 Zrotation Xrotation Yrotation
                    End Site
                    {
                        OFFSET -0.000000 0.000000 3.563746
                    }
                }
            }
        }
    }
    JOINT RightUpLeg
    {
        OFFSET -8.909365 0.000000 0.000000
        CHANNELS 3 Zrotation Xrotation Yrotation
        JOINT RightLeg
        {
            OFFSET -0.000000 -38.765560 0.000000
            CHANNELS 3 Zrotation Xrotation Yrotation
            JOINT RightFoot
            {
                OFFSET -0.000000 -35.244961 0.000000
                CHANNELS 3 Zrotation Xrotation Yrotation
                JOINT RightToeBase
                {
                    OFFSET -0.000000 -5.791087 13.364048
                    CHANNELS 3 Zrotation Xrotation Yrotation
                    End Site
                    {
                        OFFSET -0.000000 0.000000 3.563746
                    }
                }
            }
        }
    }
}
MOTION
Frames:    4
Frame Time:    0.008333
-24.130716    74.427368    112.208153    7.707817    -2.827213    85.153519    -6.278713    11.639641    0.228876    -2.690006    20.341194    0.348212    21.826202    8.494209    -34.590023    6.761386    -21.563969    -30.581436    7.107118    -9.558163    -19.966619    -59.040668    10.781880    -16.634586    36.728859    -31.013245    -37.313278    -3.177356    -41.367420    1.318175    -6.477256    8.886045    3.626627    -0.000000    0.000000    5.763472    -0.000000    0.000000    11.526945    -34.214314    22.655993    -29.531384    -80.518417    0.000000    0.000000    -40.259205    0.000000    0.000000    -56.202843    5.503569    -12.921017    -90.247345    0.000000    0.000000    -53.373672    0.000000    0.000000    -73.187538    -15.992786    -3.375397    -99.976250    0.000000    0.000000    -66.488129    0.000000    0.000000    -89.999992    -39.999996    0.000000    -110.000000    0.000000    0.000000    -80.000000    0.000000    0.000000    -6.709634    -10.705154    4.530874    66.730942    42.269894    13.381003    -58.879234    -29.193821    28.003815    33.262646    -56.203278    30.143053    3.890112    2.155567    -1.029937    0.000000    0.000000    -2.197377    0.000000    0.000000    -4.394754    19.875854    0.000000    -0.000000    39.751709    0.000000    -0.000000    19.875854    0.000000    -0.000000    38.997684    -1.195129    -0.734341    62.933647    0.000000    -0.000000    39.012810    0.000000    -0.000000    58.117256    -2.564842    -1.036828    86.115585    0.000000    -0.000000    58.149750    0.000000    -0.000000    77.836540    -3.998930    -0.861165    110.000000    0.000000    -0.000000    77.866600    0.000000    -0.000000    -3.345528    -14.982463    3.690604    -10.200148    49.533974    3.436485    16.754921    -24.369638    13.733742    -0.306503    1.682342    0.933822    5.177736    -43.482834    13.812974    4.710939    43.611977    -6.820105    2.599022    -12.961036    0.370556    -0.110129    0.295093    0.202313    
-24.134108    74.495010    112.136162    7.962049    -3.049469    84.923012    -6.086677    11.833639    0.145882    -2.697363    20.189209    0.320208    21.659456    8.697083    -34.584240    6.687850    -21.919069    -30.556780    7.601382    -9.455668    -19.612154    -58.741337    11.752549    -16.735355    38.185997    -31.659925    -36.981041    -3.148446    -41.974857    1.233344    -6.453024    8.855421    3.612079    -0.000000    0.000000    5.713356    -0.000000    0.000000    11.426712    -34.121758    22.614281    -29.573929    -80.328629    0.000000    0.000000    -40.164314    0.000000    0.000000    -56.140602    5.486849    -12.944611    -90.120171    0.000000    0.000000    -53.310085    0.000000    0.000000    -73.156013    -15.997897    -3.382662    -99.911728    0.000000    0.000000    -66.455872    0.000000    0.000000    -89.999992    -39.999996    0.000000    -110.000000    0.000000    0.000000    -80.000000    0.000000    0.000000    -7.207691    -10.765575    4.535460    67.052139    42.563831    13.083478    -58.877674    -30.076494    28.647354    32.922733    -55.910187    29.442142    3.920887    2.144490    -0.990602    0.000000    0.000000    -2.143812    0.000000    0.000000    -4.287624    19.944723    0.027823    0.076673    39.889484    0.000000    -0.000000    19.944736    0.000000    -0.000000    39.049480    -1.183453    -0.694395    63.025951    0.000000    -0.000000    39.064259    0.000000    -0.000000    58.151100    -2.580351    -1.026740    86.162422    0.000000    -0.000000    58.183777    0.000000    -0.000000    77.851852    -4.051116    -0.871251    110.000000    0.000000    -0.000000    77.882668    0.000000    -0.000000    -3.024390    -14.544655    4.754011    -9.574523    49.325115    3.632622    16.364342    -24.553982    12.383212    -0.307946    1.707266    0.939771    5.628258    -45.193115    14.086550    5.580573    48.531475    -6.975449    2.807009    -13.466211    0.607873    -0.141920    0.254204    0.248163    
-24.100290    74.655426    112.051598    8.092279    -3.311381    84.836388    -5.758054    11.908063    -0.089879    -2.720933    19.895679    0.248317    21.444715    8.948035    -34.573753    6.593827    -22.153410    -30.538876    8.021229    -9.225384    -19.156410    -58.786808    12.530482    -16.716944    39.245724    -31.717720    -36.604759    -3.144849    -42.400127    1.164784    -6.454029    8.846613    3.597237    -0.000000    0.000000    5.686154    -0.000000    0.000000    11.372309    -34.078438    22.590775    -29.589748    -80.235870    0.000000    0.000000    -40.117935    0.000000    0.000000    -56.110409    5.475903    -12.953551    -90.058044    0.000000    0.000000    -53.279026    0.000000    0.000000    -73.140350    -16.001989    -3.385054    -99.880188    0.000000    0.000000    -66.440086    0.000000    0.000000    -89.999992    -39.999996    0.000000    -110.000000    0.000000    0.000000    -80.000000    0.000000    0.000000    -7.640001    -10.779701    4.490686    67.641106    43.077763    12.566663    -58.288452    -31.029133    29.347755    32.514797    -55.538040    28.423544    3.915477    2.130693    -0.970283    0.000000    0.000000    -2.111204    0.000000    0.000000    -4.222407    20.011431    0.040050    0.109968    40.022942    0.000000    -0.000000    20.011471    0.000000    -0.000000    39.094872    -1.144069    -0.655847    63.115368    0.000000    -0.000000    39.108658    0.000000    -0.000000    58.174942    -2.513462    -0.992624    86.207802    0.000000    -0.000000    58.205833    0.000000    -0.000000    77.852295    -3.959080    -0.851460    110.000000    0.000000    -0.000000    77.881729    0.000000    -0.000000    -2.727317    -14.079049    5.811785    -8.688725    48.875595    3.158233    16.093685    -24.513065    11.372731    -0.308123    1.734131    0.942862    5.949000    -46.860237    14.126780    6.604676    53.665283    -7.317779    3.061623    -13.969272    0.884210    -0.164742    0.213930    0.280027    
-24.034122    74.909897    111.952385    8.102803    -3.593036    84.920639    -5.308973    11.888672    -0.477886    -2.746784    19.445532    0.127791    21.181688    9.219487    -34.566170    6.491404    -22.267365    -30.540039    8.343533    -8.856638    -18.606134    -59.229206    13.084528    -16.573500    39.832741    -31.305489    -36.355789    -3.177286    -42.561665    1.116057    -6.472837    8.855061    3.584996    -0.000000    0.000000    5.678926    -0.000000    0.000000    11.357853    -34.074814    22.566448    -29.567991    -80.206039    0.000000    0.000000    -40.103020    0.000000    0.000000    -56.101898    5.457405    -12.942389    -90.038048    0.000000    0.000000    -53.269032    0.000000    0.000000    -73.133896    -16.011927    -3.379537    -99.870056    0.000000    0.000000    -66.435020    0.000000    0.000000    -89.999992    -39.999996    0.000000    -110.000000    0.000000    0.000000    -80.000000    0.000000    0.000000    -7.983570    -10.720953    4.394947    68.475372    43.736256    11.828120    -57.197384    -31.856514    29.939058    32.206730    -55.006832    27.334082    3.895970    2.114425    -0.954952    0.000000    0.000000    -2.086839    0.000000    0.000000    -4.173677    20.087124    0.037829    0.103444    40.174313    0.000000    -0.000000    20.087156    0.000000    -0.000000    39.153572    -1.087997    -0.623181    63.216782    0.000000    -0.000000    39.166008    0.000000    -0.000000    58.216991    -2.389397    -0.942337    86.259270    0.000000    -0.000000    58.244873    0.000000    -0.000000    77.875336    -3.762978    -0.807772    110.000000    0.000000    -0.000000    77.901878    0.000000    -0.000000    -2.503424    -13.609984    6.672731    -7.688291    48.182232    2.115181    15.974203    -24.210005    10.842725    -0.308040    1.758377    0.945062    6.054048    -48.451965    13.888672    7.887142    58.928974    -8.030088    3.331456    -14.468569    1.169106    -0.174714    0.170868    0.291463    
